# xmcd CD database file
#
# Track frame offsets:
#	150
#	3487
#	22536
#	51674
#	72290
#	120145
#	141566
#	156789
#	172803
#	197062
#	220475
#
# Disc length: 3233 seconds
#
# Revision: 3
# Processed by: cddbd v1.5.2PL0 Copyright (c) Steve Scherf et al.
# Submitted via: CDex 1.51
#
DISCID=930c9f0b
DTITLE=Eric Clapton and Friends - The A.R.M.S. Benefit Concert (1)
DYEAR=1983
DGENRE=Blues Rock
TTITLE0=Introduction
TTITLE1=Everybody Oughta Make A Change (Eric Clapton)
TTITLE2=Rita Mae (Eric Clapton)
TTITLE3=Laydown Sally (Eric Clapton)
TTITLE4=Rambling On My Mind - Have You Ever Loved A Woman (Eric Clapton)
TTITLE5=Cocaine (Eric Clapton)
TTITLE6=Man Smart, Woman Smarter (Andy Fairweather-Low)
TTITLE7=Road Runner (Steve Winwood)
TTITLE8=Slowdown Sundown (Steve Winwood)
TTITLE9=Take Me To The River (Steve Winwood)
TTITLE10=Gimme Some Lovin' (Steve Winwood)
EXTD=YEAR: 1983
EXTT0=
EXTT1=
EXTT2=
EXTT3=
EXTT4=
EXTT5=
EXTT6=
EXTT7=
EXTT8=
EXTT9=
EXTT10=
PLAYORDER=
